<svg width="106" height="62" viewBox="0 0 106 62" fill="none" xmlns="http://www.w3.org/2000/svg">
<path d="M58.499 23.3561L57.2626 21.4816C53.8879 16.3586 49.2523 13.338 43.4776 12.5028C42.3377 12.3372 41.2011 12.251 40.0995 12.251C37.6129 12.251 35.199 12.6756 32.9159 13.5182C29.5895 14.7403 26.7791 16.7461 24.572 19.4699C22.3576 22.2003 20.9627 25.4626 20.4294 29.17C20.0263 31.9561 20.2298 34.7242 21.0321 37.4275C21.1695 37.8898 21.3301 38.3489 21.5019 38.8066L27.5515 34.3235C27.3004 32.945 27.27 31.5063 27.4894 29.9748C27.8443 27.524 28.6947 25.4805 30.093 23.7304C31.4879 21.9803 33.206 20.7304 35.3444 19.909C36.8048 19.35 38.3854 19.0665 40.052 19.0665C40.8165 19.0665 41.6187 19.1254 42.4315 19.2427C44.2289 19.505 45.7309 19.9812 46.8913 20.6582C47.5144 21.0238 48.1448 21.4935 48.7818 22.0631L28.4225 37.2003L28.4192 37.197L23.1004 41.1329L23.0964 41.1376L22.7098 41.4224L22.4409 41.6224L22.3788 41.6642L20.9706 42.7068C20.2166 43.1592 19.497 43.4699 18.8151 43.6666C17.7855 44.0362 16.6489 44.2429 15.4542 44.2429C10.8431 44.2429 7.10628 41.1912 7.10628 37.4288H7.13403C7.11685 37.1837 7.10628 36.932 7.10628 36.673V0H0V36.671C0 39.4743 0.685253 42.0596 2.03527 44.3621C2.23153 44.69 2.43836 45.0079 2.6518 45.3146H2.6452C2.6452 45.3146 2.81767 45.5736 3.14476 45.9909L3.14807 45.9943C3.29939 46.1877 3.48904 46.4155 3.70909 46.6673C3.74676 46.709 3.78508 46.7534 3.82605 46.7984C6.07146 49.2943 14.1227 53.7403 21.4959 50.4125C22.1951 50.1429 22.8427 49.805 23.3938 49.4043L23.859 49.0691L26.8517 46.8044L26.8551 46.8077L32.5472 42.5306L58.499 23.3542V23.3561Z" fill="#EF2F2F"/>
<path d="M62.2508 38.2815V38.2265L59.7549 40.8682L59.7787 40.8437L62.2508 38.2815Z" fill="#EF2F2F"/>
<path d="M99.5089 21.8236C97.7247 18.8064 95.2797 16.3694 92.2393 14.5776C89.1811 12.7825 85.7926 11.8677 82.1595 11.8677C78.5264 11.8677 75.2203 12.817 72.0419 14.6915C71.0705 15.2645 70.1751 15.8931 69.3524 16.5761V10.2449L62.2514 15.5129V27.5884L55.6394 35.7459C54.372 37.5204 52.8568 39.1049 51.1314 40.437C49.6882 41.5557 48.4248 42.4354 47.9252 42.7812C47.9146 42.7878 47.908 42.7918 47.9014 42.7984C47.7673 42.8885 47.6741 42.9501 47.6741 42.9501L47.6774 42.9362C46.8025 43.5297 45.88 44.0411 44.8948 44.4312C43.3624 45.0386 41.8022 45.3493 40.2632 45.3493C39.6843 45.3493 39.1061 45.3076 38.5273 45.2215C37.246 45.0373 36.0988 44.7041 35.099 44.2345L29.1465 48.6461C31.5987 50.3709 34.3087 51.5056 37.2565 51.9322C38.4618 52.1084 39.65 52.1945 40.7865 52.1945C42.5152 52.1945 44.1857 51.9912 45.7492 51.5838C48.3699 50.9002 50.8942 49.5575 53.2566 47.5895L53.9557 47.006L59.4205 41.2226L59.4166 41.2199L59.7549 40.8682L62.2508 38.2265V38.2815L69.4562 30.8143L69.6749 28.4582C69.9742 27.4189 70.4084 26.4147 70.9905 25.4343C72.2163 23.3663 73.8042 21.7547 75.8395 20.5048C77.8404 19.2859 79.9272 18.6924 82.2348 18.6924L82.2936 18.6991L82.6551 18.7229C84.835 18.7951 86.7771 19.3648 88.5924 20.4696C90.5999 21.6918 92.1567 23.2828 93.3548 25.3403C94.5396 27.3771 95.1145 29.5001 95.1145 31.8265C95.1145 34.1528 94.5495 36.3453 93.3891 38.3544C92.2182 40.384 90.6719 41.9618 88.6677 43.1806C86.8459 44.2888 84.9038 44.8618 82.7377 44.9307L82.3075 44.9618C79.9933 44.9618 77.8821 44.3749 75.8574 43.17C73.7117 41.8929 72.0657 40.2184 70.8293 38.0543C70.2253 36.9965 69.7866 35.8525 69.5183 34.682L67.2801 36.9554L62.2514 42.1751V61.998H69.3524V46.9814C70.2372 47.72 71.1947 48.397 72.2315 49.0011C75.3862 50.8479 78.7266 51.7871 82.1601 51.7871C85.7932 51.7871 89.1818 50.8724 92.24 49.074C95.281 47.2895 97.726 44.8518 99.5095 41.8313C101.311 38.7902 102.219 35.4246 102.219 31.8271C102.219 28.2296 101.31 24.8653 99.5089 21.8236Z" fill="#EF2F2F"/>
<path d="M72.8296 27.3055L72.8785 27.2572L73.0708 27.0644L72.8296 27.3055Z" fill="#EF2F2F"/>
<path d="M100.994 48.2625C100.994 47.928 101.058 47.6127 101.184 47.3199C101.312 47.0271 101.486 46.7695 101.704 46.5509C101.922 46.3323 102.176 46.1581 102.468 46.0329C102.76 45.9077 103.075 45.8428 103.408 45.8428C103.742 45.8428 104.057 45.907 104.349 46.0329C104.641 46.1587 104.898 46.3323 105.116 46.5509C105.334 46.7695 105.508 47.0271 105.633 47.3199C105.761 47.6127 105.825 47.928 105.825 48.2625C105.825 48.597 105.761 48.9123 105.633 49.2051C105.508 49.4979 105.334 49.7556 105.116 49.9742C104.898 50.1927 104.641 50.367 104.349 50.4921C104.057 50.6173 103.742 50.6823 103.408 50.6823C103.075 50.6823 102.76 50.618 102.468 50.4921C102.176 50.367 101.922 50.1927 101.704 49.9742C101.486 49.7556 101.312 49.4979 101.184 49.2051C101.059 48.9123 100.994 48.597 100.994 48.2625ZM101.447 48.2625C101.447 48.5454 101.499 48.8097 101.601 49.0574C101.703 49.3051 101.845 49.5204 102.021 49.7039C102.198 49.8874 102.403 50.0318 102.641 50.1351C102.882 50.2444 103.135 50.2961 103.408 50.2961C103.681 50.2961 103.935 50.2444 104.175 50.1351C104.413 50.0324 104.622 49.8874 104.798 49.7039C104.974 49.5204 105.112 49.3051 105.215 49.0574C105.317 48.8097 105.369 48.546 105.369 48.2625C105.369 47.979 105.317 47.7154 105.215 47.4676C105.112 47.2199 104.974 47.0046 104.798 46.8211C104.622 46.6376 104.413 46.4932 104.175 46.3899C103.935 46.2839 103.681 46.229 103.408 46.229C103.135 46.229 102.882 46.2839 102.641 46.3899C102.404 46.4926 102.198 46.6376 102.021 46.8211C101.845 47.0046 101.703 47.2199 101.601 47.4676C101.499 47.7154 101.447 47.979 101.447 48.2625ZM104.464 47.6577C104.464 47.8763 104.409 48.0532 104.297 48.1824C104.188 48.3142 104.06 48.4043 103.918 48.4559C103.983 48.546 104.05 48.6427 104.111 48.7421C104.172 48.8421 104.236 48.9448 104.294 49.0475C104.355 49.1501 104.413 49.2535 104.464 49.3528C104.518 49.4528 104.566 49.5456 104.611 49.633H104.177C104.145 49.5721 104.103 49.4913 104.046 49.3952C103.991 49.2925 103.93 49.1892 103.866 49.0799C103.802 48.9739 103.738 48.8739 103.68 48.7772C103.619 48.6805 103.568 48.6036 103.529 48.552C103.497 48.5553 103.443 48.5586 103.362 48.5619C103.282 48.5652 103.201 48.5652 103.127 48.5652C103.06 48.5652 102.983 48.5619 102.903 48.5586C102.819 48.552 102.749 48.546 102.691 48.5394V49.6337H102.331V47.0338C102.331 46.9145 102.395 46.841 102.53 46.8152C102.61 46.7926 102.832 46.7827 103.192 46.7827C103.375 46.7827 103.544 46.7953 103.702 46.8278C103.856 46.8602 103.994 46.9112 104.106 46.9788C104.218 47.0463 104.308 47.1364 104.369 47.2524C104.433 47.3617 104.462 47.4968 104.462 47.6577H104.464ZM104.07 47.6577C104.07 47.4968 104.006 47.3683 103.874 47.2649C103.743 47.1682 103.508 47.1172 103.168 47.1172C103.043 47.1172 102.943 47.1172 102.863 47.1272C102.786 47.1338 102.728 47.1371 102.693 47.1431V48.195C102.742 48.2049 102.809 48.2108 102.892 48.2175C102.972 48.2241 103.079 48.2301 103.21 48.2301C103.515 48.2301 103.737 48.1784 103.871 48.079C104.006 47.979 104.07 47.8379 104.07 47.6577Z" fill="#EF2F2F"/>
</svg>
